<svg width="1024" height="1024" xmlns="http://www.w3.org/2000/svg" version="1.1">

 <g>
  <title>Layer 1</title>
  <path id="svg_2" fill="#020030" d="m76,373c25.08,0 50.16,0 76,0c-1,4 -1,4 -2.70703,5.30859c-0.69481,0.37254 -1.38961,0.74508 -2.10547,1.12891c-6.14547,3.61047 -8.69445,7.91437 -11.1875,14.5625c-1.07997,4.21048 -1.13565,8.31677 -1.11353,12.63599c-0.00014,0.75175 -0.00029,1.50351 -0.00044,2.27804c0.0007,2.4727 0.00846,4.94532 0.01631,7.418c0.00187,1.71921 0.00329,3.43843 0.00429,5.15764c0.00381,4.51599 0.01363,9.03195 0.02471,13.54793c0.01024,4.61181 0.0148,9.22363 0.01983,13.83545c0.01071,9.04233 0.02777,18.08464 0.04883,27.12695c16.38114,-15.27867 32.31189,-30.986 48.1897,-46.78467c3.27098,-3.25297 6.55035,-6.49714 9.83691,-9.73437c4.00746,-3.94746 8.00017,-7.90927 11.9826,-11.88197c1.51041,-1.50185 3.02594,-2.99856 4.54668,-4.48994c2.11028,-2.07158 4.20106,-4.16108 6.2881,-6.25602c0.62785,-0.60785 1.25569,-1.21569 1.90256,-1.84195c2.8217,-2.87016 4.14027,-4.24569 4.74318,-8.32294c-0.25975,-2.76123 -0.25975,-2.76123 -2.16942,-4.55142c-1.08668,-0.71736 -1.08668,-0.71736 -2.19531,-1.44922c-1.07895,-0.7367 -1.07895,-0.7367 -2.17969,-1.48828c-1.92189,-1.22446 -1.92189,-1.22446 -3.94531,-2.19922c0,-1.32 0,-2.64 0,-4c7.7556,-0.07034 15.51112,-0.12323 23.26696,-0.15544c3.60359,-0.01548 7.20697,-0.03638 10.81043,-0.07088c28.70871,-0.26741 60.91493,0.18814 83.18433,21.26538c11.77335,13.2814 13.76722,27.37643 12.91846,44.47949c-1.02566,14.12571 -7.65833,27.07041 -18.18018,36.48145c-10.83423,8.37312 -23.14025,14.15144 -37,15c2.72235,5.09074 5.7235,9.26973 9.5625,13.5625c4.1452,4.73019 8.15004,9.52641 12,14.5c3.5448,4.57195 7.17378,9.04394 10.9375,13.4375c3.78194,4.41573 7.43258,8.90925 11,13.5c4.05196,5.21183 8.21572,10.3042 12.52002,15.30981c2.13926,2.49174 4.2114,4.9912 6.21436,7.59644c8.30648,10.79237 18.57133,18.08214 30.76562,24.09375c0,0.99 0,1.98 0,3c-5.94071,0.09953 -11.88092,0.17178 -17.82227,0.21973c-2.01733,0.02 -4.03462,0.04722 -6.05175,0.08203c-2.91454,0.04901 -5.8283,0.07132 -8.74317,0.08887c-0.88896,0.02064 -1.77792,0.04129 -2.69381,0.06256c-10.30145,0.00361 -17.77445,-3.75092 -25.1265,-10.78131c-7.30691,-7.6188 -13.81532,-15.90845 -20.29663,-24.22925c-3.5301,-4.52962 -7.13363,-8.99462 -10.76587,-13.44263c-4.0322,-4.93934 -8.01811,-9.90819 -11.9375,-14.9375c-4.67737,-5.99804 -9.50072,-11.86708 -14.35327,-17.72388c-4.27409,-5.17049 -8.44758,-10.41015 -12.56397,-15.70678c-2.36602,-3.03647 -4.7854,-5.99602 -7.33276,-8.88184c-2.3125,-2.75 -2.3125,-2.75 -2.3125,-4.75c0.8018,-0.02578 1.60359,-0.05156 2.42969,-0.07812c16.82326,-0.83926 34.85115,-3.47576 47.07031,-16.17188c9.94229,-12.39123 12.7013,-28.23322 11.5,-43.75c-1.56501,-10.66812 -6.00685,-22.52814 -14,-30c-9.40209,-6.6317 -20.30472,-11.36445 -32,-10c-6.24881,2.28115 -10.61458,6.05691 -15.19458,10.75635c-1.00402,1.00555 -1.00402,1.00555 -2.02832,2.03142c-2.19171,2.19954 -4.36903,4.41278 -6.54663,6.62629c-1.52743,1.53744 -3.05582,3.07391 -4.58513,4.60947c-4.01062,4.03149 -8.0095,8.07442 -12.00557,12.12033c-6.41016,6.48562 -12.83924,12.95251 -19.26609,19.42158c-2.24272,2.26043 -4.48117,4.52501 -6.71885,6.79043c-1.36902,1.38224 -2.7381,2.76443 -4.10722,4.14657c-0.93277,0.94759 -0.93277,0.94759 -1.88439,1.91432c-0.57314,0.57755 -1.14628,1.15509 -1.73678,1.75014c-0.49568,0.50179 -0.99135,1.00358 -1.50204,1.52058c-1.4244,1.31252 -1.4244,1.31252 -4.4244,3.31252c0.58878,3.14546 1.49573,4.91144 3.625,7.28516c0.53698,0.60723 1.07395,1.21445 1.6272,1.84008c0.57677,0.6393 1.15355,1.27859 1.7478,1.93726c1.19781,1.35311 2.39442,2.70728 3.58984,4.0625c0.58637,0.66258 1.17273,1.32516 1.77686,2.00781c2.12506,2.42937 4.16734,4.91934 6.1958,7.42969c3.40887,4.20949 6.90149,8.33511 10.4375,12.4375c4.29978,4.98936 8.50486,10.04221 12.65625,15.15625c2.73677,3.32061 5.53478,6.58422 8.34375,9.84375c3.55453,4.12468 7.06792,8.27208 10.5,12.5c3.89119,4.79023 7.88472,9.48306 11.91138,14.15918c2.98323,3.46489 5.94769,6.94404 8.88989,10.44385c2.22284,2.64094 4.46036,5.26917 6.69873,7.89697c0.75926,0.89719 1.51852,1.79438 2.30078,2.71875c8.04942,9.26469 17.37867,18.46512 29.69922,21.28125c0,1.32 0,2.64 0,4c-7.79726,0.25592 -15.59351,0.45083 -23.39393,0.56993c-3.62322,0.0572 -7.24355,0.13462 -10.8651,0.2599c-3.50161,0.12036 -7.00046,0.18546 -10.50397,0.21382c-1.97324,0.02994 -3.94537,0.1157 -5.91692,0.20261c-5.415,0.00369 -8.89779,-0.0185 -13.10078,-3.64665c-2.28075,-2.77257 -4.2701,-5.58814 -6.2193,-8.59961c-0.9439,-1.17192 -1.90655,-2.32935 -2.89844,-3.46094c-1.28482,-1.51179 -2.56955,-3.02368 -3.85302,-4.53662c-1.41527,-1.66825 -2.83173,-3.33549 -4.24854,-5.00244c-5.19219,-6.10888 -10.38124,-12.21511 -15.4375,-18.4375c-3.95758,-4.86379 -8.02792,-9.62131 -12.12085,-14.37085c-3.77499,-4.38965 -7.44893,-8.8528 -11.0979,-13.3479c-3.23909,-3.9301 -6.56635,-7.78175 -9.89136,-11.63916c-3.88083,-4.51202 -7.66098,-9.09812 -11.40551,-13.72412c-2.52208,-3.05633 -5.15445,-6.00142 -7.83204,-8.92188c-1.21484,-1.55859 -1.21484,-1.55859 -1.21484,-3.55859c-1.29243,1.12412 -2.58392,2.24933 -3.875,3.375c-0.7193,0.62648 -1.43859,1.25297 -2.17969,1.89844c-3.20554,2.59772 -3.20554,2.59772 -4.19928,6.42317c-0.00159,1.1466 -0.00318,2.29319 -0.00482,3.47453c-0.0063,1.29928 -0.01261,2.59856 -0.0191,3.93721c0.00358,1.42873 0.00768,2.85746 0.01227,4.28618c-0.00135,1.46816 -0.00329,2.93631 -0.0058,4.40447c-0.00296,3.08779 0.00135,6.17547 0.01068,9.26326c0.01128,3.92226 0.00491,7.84425 -0.00715,11.76651c-0.0073,3.03986 -0.00489,6.07965 0.00026,9.11951c0.00132,1.44341 -0.00025,2.88683 -0.00496,4.33023c-0.41386,18.97906 -0.41386,18.97906 7.27259,35.72149c2.52081,2.01278 5.11291,3.57239 8,5c0.66,0.33 1.32,0.66 2,1c0,1.32 0,2.64 0,4c-25.08,0 -50.16,0 -76,0c0,-1.32 0,-2.64 0,-4c0.60328,-0.30293 1.20656,-0.60586 1.82813,-0.91797c7.59224,-3.9798 10.97639,-7.607 13.55859,-15.80078c1.29619,-4.82149 1.74303,-9.22008 1.76045,-14.2244c0.00368,-0.68663 0.00735,-1.37326 0.01114,-2.0807c0.01099,-2.2943 0.01487,-4.58856 0.01869,-6.88289c0.00627,-1.64789 0.01292,-3.29579 0.01991,-4.94368c0.021,-5.40662 0.0314,-10.81324 0.04137,-16.21989c0.00405,-1.86484 0.00817,-3.72968 0.01235,-5.59451c0.01904,-8.7635 0.03328,-17.52698 0.04161,-26.29049c0.00977,-10.09883 0.03608,-20.19744 0.0765,-30.29619c0.03022,-7.81677 0.04498,-15.63348 0.04828,-23.45031c0.00235,-4.66339 0.01123,-9.32655 0.03647,-13.98987c0.02337,-4.39137 0.02747,-8.78235 0.01723,-13.17376c-0.00049,-1.60473 0.00577,-3.20948 0.01956,-4.81415c0.09238,-11.39166 -0.62299,-22.15102 -8.83012,-30.88291c-2.67557,-2.31672 -5.49855,-3.8567 -8.66016,-5.4375c0,-0.99 0,-1.98 0,-3z"/>
  <path id="svg_3" fill="#020030" d="m901,377c54.7027,0 54.7027,0 66.6875,10.3125c7.04287,8.18496 9.88665,15.94927 9.61719,26.75781c-1.02059,9.81337 -4.79389,17.50684 -12.30469,23.92969c-2.9009,1.91594 -5.84376,3.54608 -9,5c3.85869,6.98119 7.87631,13.84255 12.09375,20.61328c0.36013,0.57931 0.72026,1.15863 1.09131,1.75549c1.83447,2.94896 3.6768,5.8926 5.52978,8.82996c0.68192,1.09329 1.36383,2.18657 2.06641,3.31299c0.61939,0.98444 1.23879,1.96888 1.87695,2.98315c1.3418,2.50513 1.3418,2.50513 1.3418,5.50513c-6.06565,1.36168 -12.07807,2.39451 -18,0c-7.74506,-7.06412 -12.13015,-18.15004 -16.64062,-27.43359c-0.43257,-0.82581 -0.86513,-1.65162 -1.3108,-2.50245c-1.23608,-2.37646 -1.23608,-2.37646 -2.18115,-4.69042c-1.18114,-2.58939 -1.18114,-2.58939 -4.86743,-5.37354c-6.27,-0.33 -12.54,-0.66 -19,-1c0,13.53 0,27.06 0,41c-5.61,0 -11.22,0 -17,0c0,-35.97 0,-71.94 0,-109z"/>
  <path id="svg_4" fill="#020030" d="m635,377c5.61,0 11.22,0 17,0c3.8768,4.16606 6.14395,7.39284 8.5625,12.3125c0.68303,1.26538 1.37277,2.52715 2.06885,3.7854c1.43954,2.61774 2.84527,5.24983 4.22949,7.89722c3.09138,5.8595 6.53454,11.50848 9.9548,17.17978c1.67987,2.79504 3.33363,5.60537 4.98905,8.41494c1.60713,2.72587 3.21501,5.4416 4.89502,8.12329c1.30029,2.28687 1.30029,2.28687 1.30029,4.28687c2.56666,-2.35891 4.31462,-4.88463 6.15234,-7.83984c0.6057,-0.97075 1.2114,-1.94149 1.83545,-2.94165c0.96511,-1.56223 0.96511,-1.56223 1.94971,-3.15601c0.66661,-1.07306 1.33321,-2.14613 2.02002,-3.25171c3.6799,-5.93955 7.32904,-11.897 10.92432,-17.88818c0.98976,-1.64729 1.98644,-3.29043 2.99023,-4.9292c2.68365,-4.41304 5.08163,-8.80467 7.1272,-13.55078c1.64503,-3.03556 3.89429,-5.707 6.00073,-8.44263c5.61,0 11.22,0 17,0c0,35.97 0,71.94 0,109c-5.28,0 -10.56,0 -16,0c-0.33,-26.07 -0.66,-52.14 -1,-79c-3.96,6.27 -7.92,12.54 -12,19c-5.48807,8.537 -11.00546,17.04935 -16.625,25.5c-0.4262,0.64163 -0.85239,1.28326 -1.2915,1.94434c-2.9602,4.43236 -2.9602,4.43236 -4.0835,5.55566c-3.07804,0.41769 -5.0422,0.67331 -8,0c-2.22568,-2.43212 -3.55719,-4.30452 -5.125,-7.125c-0.93534,-1.56041 -1.87159,-3.12028 -2.80859,-4.67969c-0.49098,-0.83885 -0.98195,-1.67771 -1.4878,-2.54199c-2.80221,-4.70994 -5.80101,-9.29492 -8.76611,-13.90332c-5.02504,-7.86497 -9.92005,-15.79977 -14.8125,-23.75c-0.33,26.07 -0.66,52.14 -1,79c-5.28,0 -10.56,0 -16,0c0,-35.97 0,-71.94 0,-109z"/>
  <path id="svg_5" fill="#020030" d="m401,377c5.61,0 11.22,0 17,0c0.33,16.17 0.66,32.34 1,49c4.455,-4.95 4.455,-4.95 9,-10c4.625,-4.625 4.625,-4.625 6.87891,-6.84766c2.58784,-2.62596 4.97626,-5.38989 7.375,-8.1875c1.84225,-2.07304 3.77011,-4.0192 5.74609,-5.96484c4.77468,-4.71003 9.43661,-9.56016 13.0625,-15.21875c1.70598,-2.05078 2.57338,-2.70442 5.21216,-3.26123c2.70289,-0.11063 5.337,-0.0439 8.03784,0.10498c1.39702,0.04061 1.39702,0.04061 2.82227,0.08203c2.2908,0.07049 4.57681,0.16893 6.86523,0.29297c-1.52603,3.2163 -3.09801,5.28769 -5.6875,7.75c-2.73405,2.66016 -5.33137,5.3525 -7.8125,8.25c-2.39677,2.78896 -4.87959,5.41991 -7.5,8c-3.15754,3.11527 -6.10106,6.34135 -8.99219,9.70313c-4.24034,4.85081 -8.64157,9.55954 -13.00781,14.29687c1.42495,4.25944 3.50669,7.05652 6.4375,10.4375c0.91061,1.0649 1.8194,2.13137 2.72656,3.19922c0.46954,0.5522 0.93908,1.1044 1.42285,1.67334c2.30877,2.7611 4.51629,5.59907 6.72559,8.43994c4.03725,5.18146 8.15271,10.29149 12.3125,15.375c3.96736,4.86296 7.8939,9.74983 11.6875,14.75c0.71801,0.94617 1.43602,1.89234 2.17578,2.86719c1.51172,2.25781 1.51172,2.25781 1.51172,4.25781c-17.26921,1.78046 -17.26921,1.78046 -22.83984,-1.85156c-1.84995,-2.35061 -3.44698,-4.74292 -4.97559,-7.31201c-2.38718,-3.70082 -5.34848,-6.97619 -8.18457,-10.33643c-1.20905,-1.46318 -2.41611,-2.928 -3.62109,-4.39453c-0.57605,-0.69948 -1.1521,-1.39896 -1.74561,-2.11963c-2.93919,-3.5736 -5.86726,-7.15622 -8.78955,-10.74365c-1.61037,-1.95838 -3.2518,-3.88369 -4.90625,-5.80469c-1.9375,-2.4375 -1.9375,-2.4375 -1.9375,-4.4375c-1.2955,1.09967 -2.58626,2.20492 -3.875,3.3125c-0.7193,0.61488 -1.43859,1.22977 -2.17969,1.86328c-3.02172,2.83363 -3.9079,4.3858 -4.26416,8.56128c-0.04158,1.54965 -0.07266,3.09961 -0.09521,4.64966c-0.01937,0.81701 -0.03873,1.63402 -0.05869,2.47578c-0.05975,2.60823 -0.10616,5.2165 -0.15225,7.825c-0.03818,1.7689 -0.07724,3.53778 -0.11719,5.30664c-0.09765,4.33519 -0.17724,8.67018 -0.25781,13.00586c-5.61,0 -11.22,0 -17,0c0,-35.97 0,-71.94 0,-109z"/>
  <path id="svg_6" fill="#020030" d="m790,377c22.77,0 45.54,0 69,0c0,5.28 0,10.56 0,16c-17.16,0 -34.32,0 -52,0c0,9.9 0,19.8 0,30c14.85,0 29.7,0 45,0c0,5.28 0,10.56 0,16c-14.85,0 -29.7,0 -45,0c0,10.56 0,21.12 0,32c17.16,0 34.32,0 52,0c0,4.95 0,9.9 0,15c-22.77,0 -45.54,0 -69,0c0,-35.97 0,-71.94 0,-109z"/>
  <path id="svg_7" fill="#020030" d="m522,377c22.77,0 45.54,0 69,0c0,5.28 0,10.56 0,16c-17.16,0 -34.32,0 -52,0c0,9.9 0,19.8 0,30c14.85,0 29.7,0 45,0c0,5.28 0,10.56 0,16c-14.85,0 -29.7,0 -45,0c0,10.56 0,21.12 0,32c17.16,0 34.32,0 52,0c0,4.95 0,9.9 0,15c-22.77,0 -45.54,0 -69,0c0,-35.97 0,-71.94 0,-109z"/>
  <path id="svg_8" fill="#020030" d="m645,537c33.17218,0 33.17218,0 42.41406,9.06641c5.85594,7.13963 7.32896,14.89797 6.58594,23.93359c-1.86356,8.56417 -5.85432,14.81588 -13,20c-12.16902,5.97777 -21.06225,4 -36,4c0,-18.81 0,-37.62 0,-57z"/>
  <path id="svg_9" fill="#020030" d="m401,537c25,0 25,0 34,4c4.35369,4.44439 6.13629,7.64359 6.25,13.8125c-0.07196,4.5076 -0.5944,7.41826 -3.25,11.1875c-2.22651,2.14735 -4.55299,4.10943 -7,6c0.92232,1.53721 0.92232,1.53721 1.86328,3.10547c4.875,8.125 4.875,8.125 6.04541,10.08349c0.94495,1.56816 1.9126,3.12259 2.88428,4.67432c1.20703,2.13672 1.20703,2.13672 1.20703,4.13672c-3.48788,0.58814 -6.52991,0.76729 -10,0c-2.98361,-2.67584 -4.7214,-5.87921 -6.625,-9.375c-0.79084,-1.33418 -0.79084,-1.33418 -1.59766,-2.69531c-3.77734,-6.47545 -3.77734,-6.47545 -3.77734,-8.92969c-3.3,0 -6.6,0 -10,0c0,6.93 0,13.86 0,21c-3.3,0 -6.6,0 -10,0c0,-18.81 0,-37.62 0,-57z"/>
  <path id="svg_10" fill="#020030" d="m786,537c9,0 9,0 11.60938,2.42969c0.74409,1.12888 1.45603,2.27938 2.14062,3.44531c0.83,1.28127 1.66215,2.56114 2.49609,3.83984c0.43683,0.68949 0.87367,1.37898 1.32373,2.08936c2.5957,3.98526 5.43594,7.7953 8.24268,11.6333c1.07003,1.47713 2.13908,2.95497 3.20703,4.43359c0.4548,0.62834 0.9096,1.25668 1.37818,1.90406c2.20983,3.06844 4.40442,6.14783 6.60229,9.22485c0.33,-12.87 0.66,-25.74 1,-39c2.97,0 5.94,0 9,0c0,18.81 0,37.62 0,57c-9,0 -9,0 -10.99292,-1.35083c-0.40839,-0.63317 -0.81678,-1.26634 -1.23755,-1.9187c-0.4863,-0.71543 -0.9726,-1.43086 -1.47363,-2.16797c-0.48952,-0.78375 -0.97904,-1.5675 -1.4834,-2.375c-1.10099,-1.64319 -2.20392,-3.28507 -3.30859,-4.92578c-0.56574,-0.85932 -1.13148,-1.71864 -1.71436,-2.60401c-3.02819,-4.49725 -6.29275,-8.81708 -9.53955,-13.15771c-1.18434,-1.59223 -2.36679,-3.18586 -3.54687,-4.78125c-0.74782,-1.00644 -0.74782,-1.00644 -1.51075,-2.0332c-1.19238,-1.68555 -1.19238,-1.68555 -2.19238,-3.68555c-0.33,12.87 -0.66,25.74 -1,39c-2.97,0 -5.94,0 -9,0c0,-18.81 0,-37.62 0,-57z"/>
  <path id="svg_11" fill="#FAFAFA" d="m918,393c6.71344,-0.09281 6.71344,-0.09281 13.5625,-0.1875c1.39807,-0.02731 2.79614,-0.05462 4.23657,-0.08276c13.36778,-0.08947 13.36778,-0.08947 19.16187,4.98901c0.46664,0.58781 0.93328,1.17563 1.41406,1.78125c0.48211,0.58781 0.96422,1.17563 1.46094,1.78125c2.99504,4.42222 2.70998,9.60078 2.16406,14.71875c-1.65278,5.27272 -4.21111,9.10439 -9,12c-6.69906,2.5908 -13.33782,2.22493 -20.4375,2.125c-4.14563,-0.04125 -8.29125,-0.0825 -12.5625,-0.125c0,-12.21 0,-24.42 0,-37z"/>
  <path id="svg_12" fill="#020030" d="m721,537c11.55,0 23.1,0 35,0c0,2.97 0,5.94 0,9c-8.25,0 -16.5,0 -25,0c0,5.28 0,10.56 0,16c7.26,0 14.52,0 22,0c0,2.64 0,5.28 0,8c-7.26,0 -14.52,0 -22,0c0,5.28 0,10.56 0,16c8.58,0 17.16,0 26,0c0,2.64 0,5.28 0,8c-11.88,0 -23.76,0 -36,0c0,-18.81 0,-37.62 0,-57z"/>
  <path id="svg_13" fill="#020030" d="m940,537c11.88,0 23.76,0 36,0c0,2.97 0,5.94 0,9c-8.91,0 -17.82,0 -27,0c0,5.28 0,10.56 0,16c7.59,0 15.18,0 23,0c0,2.64 0,5.28 0,8c-7.59,0 -15.18,0 -23,0c0,5.28 0,10.56 0,16c9.24,0 18.48,0 28,0c0,2.64 0,5.28 0,8c-12.21,0 -24.42,0 -37,0c0,-18.81 0,-37.62 0,-57z"/>
  <path id="svg_14" fill="#020030" d="m471,537c11.88,0 23.76,0 36,0c0,2.97 0,5.94 0,9c-8.91,0 -17.82,0 -27,0c0,5.28 0,10.56 0,16c7.59,0 15.18,0 23,0c0,2.64 0,5.28 0,8c-7.59,0 -15.18,0 -23,0c0,5.28 0,10.56 0,16c9.24,0 18.48,0 28,0c0,2.64 0,5.28 0,8c-12.21,0 -24.42,0 -37,0c0,-18.81 0,-37.62 0,-57z"/>
  <path id="svg_15" fill="#020030" d="m566.625,539.25c3.33581,1.79535 5.2641,3.60381 7.375,6.75c-3.465,2.475 -3.465,2.475 -7,5c-1.11375,-0.825 -2.2275,-1.65 -3.375,-2.5c-4.79456,-2.99447 -9.08582,-3.54531 -14.625,-2.5c-2.82133,1.40088 -2.82133,1.40088 -4,4c-0.48796,3.07666 -0.48796,3.07666 1,6c4.49403,2.88296 8.97919,4.3168 14.0625,5.875c6.01964,1.93298 10.83189,4.53057 14.09766,10.10547c1.81078,4.35431 1.07586,8.25902 -0.28516,12.64453c-2.7387,4.92965 -5.81225,7.50865 -11,9.6875c-8.71179,1.54564 -15.88364,1.6135 -23.73828,-2.80078c-3.05245,-2.1596 -5.00213,-4.45214 -7.13672,-7.51172c1.98,-1.65 3.96,-3.3 6,-5c2.52769,1.16662 4.35453,2.30135 6.5,4.125c5.00095,2.67908 9.92456,2.73694 15.5,1.875c2.35679,-1.22202 2.35679,-1.22202 4,-3c0.6668,-2.95721 0.6668,-2.95721 0,-6c-3.73278,-5.09554 -9.46604,-5.90882 -15.26953,-7.44727c-5.8548,-1.7389 -9.56296,-4.22581 -12.73047,-9.55273c-1.49721,-4.83398 -1.49216,-8.64834 0.5625,-13.3125c6.00864,-10.4734 20.02963,-11.25446 30.0625,-6.4375z"/>
  <path id="svg_16" fill="#020030" d="m902.5625,539.0625c4.47914,2.60224 7.35933,5.80627 10.4375,9.9375c-2.46741,2.64107 -4.57441,3.79641 -8,5c-0.53109,-0.49371 -1.06219,-0.98742 -1.60937,-1.49609c-1.05961,-0.961 -1.05961,-0.961 -2.14063,-1.94141c-0.69609,-0.63809 -1.39219,-1.27617 -2.10938,-1.93359c-4.1407,-3.15087 -9.07557,-3.27238 -14.14062,-2.62891c-6.20601,1.89723 -9.93835,5.33661 -13,11c-2.04657,6.13971 -1.492,12.2185 1.01562,18.14453c2.341,4.4126 5.22183,8.02692 9.98438,9.85547c8.65344,0.97744 8.65344,0.97744 16.625,-1.8125c2.31418,-2.06167 2.31418,-2.06167 4,-4c1.375,-1.1875 1.375,-1.1875 3.3125,-1.125c2.59314,1.1787 4.09953,2.90076 6.0625,4.9375c-6.11917,7.22378 -12.13096,10.99935 -21.57422,12.375c-7.90211,0.39697 -14.97449,-2.22759 -21.23828,-7c-5.41678,-5.01981 -8.79073,-12.52978 -9.39063,-19.85547c-0.15492,-8.94697 1.39932,-16.46084 7.20313,-23.51953c9.50878,-8.49071 22.56662,-11.47126 34.5625,-5.9375z"/>
  <path id="svg_17" fill="#FAFAFA" d="m655,546c17.27027,0 17.27027,0 23.875,5.3125c4.42247,5.59313 5.68821,9.86253 5.47656,16.93359c-0.70244,5.50249 -2.85072,9.29155 -6.78906,13.12891c-8.02286,5.08767 -11.68028,3.625 -22.5625,3.625c0,-12.87 0,-25.74 0,-39z"/>
  <path id="svg_18" fill="#020030" d="m604,537c2.97,0 5.94,0 9,0c0,18.81 0,37.62 0,57c-2.97,0 -5.94,0 -9,0c0,-18.81 0,-37.62 0,-57z"/>
  <path id="svg_19" fill="#FAFAFB" d="m411,546c3.58875,-0.06187 3.58875,-0.06187 7.25,-0.125c0.74669,-0.01821 1.49338,-0.03642 2.2627,-0.05518c3.66577,-0.03056 6.46387,0.00619 9.4873,2.18018c2.45929,3.68893 2.69306,6.71641 2,11c-2.12448,3.44313 -3.14853,4.71618 -7,6c-4.66968,0.1359 -9.32738,0.04287 -14,0c0,-6.27 0,-12.54 0,-19z"/>
 </g>
</svg>